<svg width="186" height="32" viewBox="0 0 186 32" fill="none" xmlns="http://www.w3.org/2000/svg">
<path d="M39.76 24V6.52801H44.24V10.784L43.76 10.08C44.016 8.736 44.6347 7.74401 45.616 7.10401C46.5973 6.464 47.7707 6.144 49.136 6.144C50.5867 6.144 51.856 6.51734 52.944 7.26401C54.0533 7.98934 54.7467 8.97067 55.024 10.208L53.648 10.336C54.224 8.90667 55.0453 7.85067 56.112 7.168C57.1787 6.48534 58.4267 6.144 59.856 6.144C61.1147 6.144 62.224 6.42134 63.184 6.97601C64.1653 7.53067 64.9333 8.30934 65.488 9.31201C66.0427 10.2933 66.32 11.4453 66.32 12.768V24H61.52V13.792C61.52 13.1093 61.392 12.5227 61.136 12.032C60.9013 11.5413 60.56 11.1573 60.112 10.88C59.664 10.6027 59.12 10.464 58.48 10.464C57.8613 10.464 57.3173 10.6027 56.848 10.88C56.4 11.1573 56.048 11.5413 55.792 12.032C55.5573 12.5227 55.44 13.1093 55.44 13.792V24H50.64V13.792C50.64 13.1093 50.512 12.5227 50.256 12.032C50.0213 11.5413 49.68 11.1573 49.232 10.88C48.784 10.6027 48.24 10.464 47.6 10.464C46.9813 10.464 46.4373 10.6027 45.968 10.88C45.52 11.1573 45.168 11.5413 44.912 12.032C44.6773 12.5227 44.56 13.1093 44.56 13.792V24H39.76Z" fill="#000112"/>
<path d="M74.8868 24.384C73.6281 24.384 72.5401 24.1813 71.6228 23.776C70.7054 23.3707 70.0014 22.7947 69.5108 22.048C69.0201 21.28 68.7748 20.3733 68.7748 19.328C68.7748 18.3467 68.9988 17.4827 69.4468 16.736C69.8948 15.968 70.5774 15.328 71.4948 14.816C72.4334 14.304 73.5961 13.9413 74.9828 13.728L80.3268 12.864V16.384L75.8468 17.184C75.1641 17.312 74.6414 17.536 74.2788 17.856C73.9161 18.1547 73.7348 18.592 73.7348 19.168C73.7348 19.7013 73.9374 20.1173 74.3428 20.416C74.7481 20.7147 75.2494 20.864 75.8468 20.864C76.6361 20.864 77.3294 20.6933 77.9268 20.352C78.5241 20.0107 78.9828 19.552 79.3028 18.976C79.6441 18.3787 79.8148 17.728 79.8148 17.024V12.48C79.8148 11.8187 79.5481 11.264 79.0148 10.816C78.5028 10.368 77.7988 10.144 76.9028 10.144C76.0494 10.144 75.2921 10.3787 74.6308 10.848C73.9908 11.3173 73.5214 11.936 73.2228 12.704L69.3828 10.88C69.7241 9.89867 70.2681 9.056 71.0148 8.35201C71.7614 7.64801 72.6574 7.10401 73.7028 6.72001C74.7481 6.336 75.8894 6.144 77.1268 6.144C78.5988 6.144 79.9001 6.41067 81.0308 6.944C82.1614 7.47734 83.0361 8.224 83.6548 9.184C84.2948 10.1227 84.6148 11.2213 84.6148 12.48V24H80.1348V21.184L81.2228 20.992C80.7108 21.76 80.1454 22.4 79.5268 22.912C78.9081 23.4027 78.2148 23.7653 77.4468 24C76.6788 24.256 75.8254 24.384 74.8868 24.384Z" fill="#000112"/>
<path d="M88.135 24V6.52801H92.615V9.984L92.359 9.21601C92.7643 8.17067 93.415 7.40267 94.311 6.912C95.2283 6.4 96.295 6.144 97.511 6.144C98.8337 6.144 99.9857 6.42134 100.967 6.97601C101.97 7.53067 102.748 8.30934 103.303 9.31201C103.858 10.2933 104.135 11.4453 104.135 12.768V24H99.335V13.792C99.335 13.1093 99.1963 12.5227 98.919 12.032C98.663 11.5413 98.2897 11.1573 97.799 10.88C97.3297 10.6027 96.775 10.464 96.135 10.464C95.5163 10.464 94.9617 10.6027 94.471 10.88C93.9803 11.1573 93.5963 11.5413 93.319 12.032C93.063 12.5227 92.935 13.1093 92.935 13.792V24H88.135Z" fill="#000112"/>
<path d="M112.699 24.384C111.441 24.384 110.353 24.1813 109.435 23.776C108.518 23.3707 107.814 22.7947 107.323 22.048C106.833 21.28 106.587 20.3733 106.587 19.328C106.587 18.3467 106.811 17.4827 107.259 16.736C107.707 15.968 108.39 15.328 109.307 14.816C110.246 14.304 111.409 13.9413 112.795 13.728L118.139 12.864V16.384L113.659 17.184C112.977 17.312 112.454 17.536 112.091 17.856C111.729 18.1547 111.547 18.592 111.547 19.168C111.547 19.7013 111.75 20.1173 112.155 20.416C112.561 20.7147 113.062 20.864 113.659 20.864C114.449 20.864 115.142 20.6933 115.739 20.352C116.337 20.0107 116.795 19.552 117.115 18.976C117.457 18.3787 117.627 17.728 117.627 17.024V12.48C117.627 11.8187 117.361 11.264 116.827 10.816C116.315 10.368 115.611 10.144 114.715 10.144C113.862 10.144 113.105 10.3787 112.443 10.848C111.803 11.3173 111.334 11.936 111.035 12.704L107.195 10.88C107.537 9.89867 108.081 9.056 108.827 8.35201C109.574 7.64801 110.47 7.10401 111.515 6.72001C112.561 6.336 113.702 6.144 114.939 6.144C116.411 6.144 117.713 6.41067 118.843 6.944C119.974 7.47734 120.849 8.224 121.467 9.184C122.107 10.1227 122.427 11.2213 122.427 12.48V24H117.947V21.184L119.035 20.992C118.523 21.76 117.958 22.4 117.339 22.912C116.721 23.4027 116.027 23.7653 115.259 24C114.491 24.256 113.638 24.384 112.699 24.384Z" fill="#000112"/>
<path d="M134.524 31.04C133.18 31.04 131.932 30.816 130.78 30.368C129.628 29.92 128.636 29.2907 127.804 28.48C126.993 27.6907 126.406 26.752 126.044 25.664L130.492 24.096C130.726 24.9067 131.206 25.5467 131.932 26.016C132.657 26.4853 133.521 26.72 134.524 26.72C135.313 26.72 135.996 26.5707 136.572 26.272C137.148 25.9947 137.585 25.5787 137.884 25.024C138.204 24.4693 138.364 23.8187 138.364 23.072V19.072L139.292 20.224C138.694 21.2053 137.926 21.9413 136.988 22.432C136.049 22.9013 134.95 23.136 133.692 23.136C132.07 23.136 130.62 22.7733 129.34 22.048C128.06 21.3013 127.057 20.288 126.332 19.008C125.606 17.7067 125.244 16.2347 125.244 14.592C125.244 12.9493 125.606 11.4987 126.332 10.24C127.057 8.96001 128.049 7.95734 129.308 7.232C130.566 6.50667 131.996 6.144 133.596 6.144C134.854 6.144 135.953 6.4 136.892 6.912C137.83 7.40267 138.63 8.16 139.292 9.184L138.684 10.336V6.52801H143.164V23.072C143.164 24.608 142.79 25.9733 142.044 27.168C141.297 28.384 140.273 29.3333 138.972 30.016C137.692 30.6987 136.209 31.04 134.524 31.04ZM134.364 18.784C135.174 18.784 135.878 18.6133 136.476 18.272C137.073 17.9307 137.532 17.4507 137.852 16.832C138.193 16.2133 138.364 15.488 138.364 14.656C138.364 13.824 138.193 13.0987 137.852 12.48C137.51 11.84 137.041 11.3493 136.444 11.008C135.846 10.6453 135.153 10.464 134.364 10.464C133.553 10.464 132.828 10.6453 132.188 11.008C131.569 11.3493 131.078 11.84 130.716 12.48C130.374 13.0987 130.204 13.824 130.204 14.656C130.204 15.4667 130.374 16.1813 130.716 16.8C131.078 17.4187 131.569 17.9093 132.188 18.272C132.828 18.6133 133.553 18.784 134.364 18.784Z" fill="#000112"/>
<path d="M155.114 24.384C153.258 24.384 151.647 23.9787 150.282 23.168C148.916 22.336 147.86 21.2267 147.114 19.84C146.367 18.4533 145.994 16.9173 145.994 15.232C145.994 13.4827 146.378 11.9253 147.146 10.56C147.935 9.19467 148.991 8.11734 150.314 7.328C151.636 6.53867 153.13 6.144 154.794 6.144C156.18 6.144 157.407 6.36801 158.474 6.81601C159.54 7.24267 160.436 7.85067 161.162 8.64001C161.908 9.42934 162.474 10.3467 162.858 11.392C163.242 12.416 163.434 13.536 163.434 14.752C163.434 15.0933 163.412 15.4347 163.37 15.776C163.348 16.096 163.295 16.3733 163.21 16.608H150.122V13.088H160.49L158.218 14.752C158.431 13.8347 158.42 13.024 158.186 12.32C157.951 11.5947 157.535 11.0293 156.938 10.624C156.362 10.1973 155.647 9.984 154.794 9.984C153.962 9.984 153.247 10.1867 152.65 10.592C152.052 10.9973 151.604 11.5947 151.306 12.384C151.007 13.1733 150.89 14.1333 150.954 15.264C150.868 16.2453 150.986 17.1093 151.306 17.856C151.626 18.6027 152.116 19.1893 152.778 19.616C153.439 20.0213 154.239 20.224 155.178 20.224C156.031 20.224 156.756 20.0533 157.354 19.712C157.972 19.3707 158.452 18.9013 158.794 18.304L162.634 20.128C162.292 20.9813 161.748 21.728 161.002 22.368C160.276 23.008 159.412 23.5093 158.41 23.872C157.407 24.2133 156.308 24.384 155.114 24.384Z" fill="#000112"/>
<path d="M166.26 24V6.52801H171.06V24H166.26ZM166.26 4.96V0.160004H171.06V4.96H166.26Z" fill="#000112"/>
<path d="M182.989 24.192C180.877 24.192 179.234 23.6267 178.061 22.496C176.909 21.344 176.333 19.744 176.333 17.696V10.688H173.389V6.52801H173.549C174.445 6.52801 175.127 6.30401 175.597 5.856C176.087 5.40801 176.333 4.73601 176.333 3.84V2.56001H181.133V6.52801H185.229V10.688H181.133V17.376C181.133 17.9733 181.239 18.4747 181.453 18.88C181.666 19.264 181.997 19.552 182.445 19.744C182.893 19.936 183.447 20.032 184.109 20.032C184.258 20.032 184.429 20.0213 184.621 20C184.813 19.9787 185.015 19.9573 185.229 19.936V24C184.909 24.0427 184.546 24.0853 184.141 24.128C183.735 24.1707 183.351 24.192 182.989 24.192Z" fill="#000112"/>
<rect width="6" height="25" rx="2" fill="#635FC7"/>
<rect opacity="0.75" x="9" width="6" height="25" rx="2" fill="#635FC7"/>
<rect opacity="0.5" x="18" width="6" height="25" rx="2" fill="#635FC7"/>
</svg>
